<svg width="11" height="11" viewBox="0 0 11 11" fill="none" xmlns="http://www.w3.org/2000/svg">
<path d="M5.5 0C2.46263 0 0 2.46263 0 5.5C0 8.53737 2.46263 11 5.5 11C8.53737 11 11 8.53737 11 5.5C11 2.46263 8.53737 0 5.5 0ZM5.95833 7.35946V5.95833H7.33058C7.30354 6.48221 7.23342 6.985 7.12158 7.46121C6.74438 7.40621 6.35433 7.37504 5.95833 7.35946ZM6.85529 8.35038C6.62658 8.95996 6.32408 9.49483 5.95833 9.93437V8.27521C6.26358 8.28804 6.56287 8.31233 6.85529 8.35038ZM5.95833 5.04167V3.65979C6.35617 3.64421 6.74713 3.61258 7.12617 3.55713C7.23525 4.02783 7.30446 4.52467 7.33058 5.04167H5.95833ZM5.95833 2.74358V1.06562C6.32775 1.50975 6.63254 2.05104 6.86171 2.66796C6.56746 2.70646 6.26588 2.73075 5.95833 2.74358ZM7.19721 1.24621C7.76417 1.47354 8.27612 1.80904 8.70512 2.22979C8.41087 2.33704 8.10425 2.43238 7.77975 2.508C7.62208 2.05333 7.42454 1.63258 7.19721 1.24621ZM3.87842 7.46121C3.76658 6.985 3.696 6.48221 3.66942 5.95833H5.04167V7.35946C4.64521 7.37504 4.25608 7.40621 3.87842 7.46121ZM5.04167 8.27521V9.93437C4.67592 9.49483 4.37342 8.95996 4.14471 8.35038C4.43713 8.31233 4.73642 8.28804 5.04167 8.27521ZM3.66942 5.04167C3.69554 4.52467 3.76429 4.02783 3.87383 3.55713C4.25287 3.61258 4.64383 3.64421 5.04167 3.65979V5.04167H3.66942ZM4.13875 2.66796C4.36792 2.05104 4.67271 1.50975 5.04167 1.06562V2.74358C4.73413 2.73075 4.43254 2.70646 4.13875 2.66796ZM3.21979 2.50754C2.89529 2.43192 2.58867 2.33658 2.29487 2.22933C2.72433 1.80858 3.23583 1.47308 3.80279 1.24575C3.57546 1.63258 3.37792 2.05333 3.21979 2.50754ZM2.96817 3.38662C2.84717 3.91417 2.76925 4.46829 2.74267 5.04167H0.940042C1.01567 4.28175 1.27875 3.57638 1.68117 2.97092C2.0845 3.13637 2.5135 3.278 2.96817 3.38662ZM2.97229 7.63171C2.51946 7.73987 2.09229 7.88013 1.69033 8.04421C1.28242 7.43554 1.01613 6.72467 0.940042 5.95833H2.74312C2.76971 6.53813 2.849 7.09867 2.97229 7.63171ZM3.22575 8.51033C3.3825 8.95767 3.57775 9.37246 3.80188 9.75333C3.24133 9.52875 2.73579 9.19829 2.30954 8.78396C2.60104 8.679 2.90492 8.58458 3.22575 8.51033ZM7.77425 8.51033C8.09508 8.58504 8.3985 8.67854 8.69046 8.78396C8.26375 9.19783 7.75821 9.52875 7.19767 9.75379C7.42179 9.37246 7.61704 8.95767 7.77425 8.51033ZM8.02771 7.63171C8.15146 7.09867 8.23029 6.53813 8.25733 5.95833H10.0604C9.98388 6.72467 9.71758 7.43554 9.30967 8.04421C8.90771 7.88013 8.48008 7.73987 8.02771 7.63171ZM8.25733 5.04167C8.23075 4.46829 8.15238 3.91417 8.03183 3.38662C8.4865 3.278 8.91596 3.13637 9.31929 2.97092C9.72125 3.57638 9.98433 4.28175 10.06 5.04167H8.25733Z" fill="white"/>
</svg>
