<svg width="300" height="32" viewBox="0 0 300 32" fill="none" xmlns="http://www.w3.org/2000/svg">
<rect x="177" y="4.5" width="123" height="24" fill="white"/>
<path fill-rule="evenodd" clip-rule="evenodd" d="M8.25406 12.7947L8.25406 8.36948L23.2997 8.36948L23.2997 12.7947H23.2995L23.2995 23.8577L19.3168 23.8577L19.3168 15.4557L9.07442 25.6981L6.22267 22.8463L16.2743 12.7947L8.25406 12.7947Z" fill="white"/>
<path d="M30.0906 25.6192H37.3851C41.4376 25.6192 44.1567 24.0663 45.4378 21.336C46.0392 20.0836 46.3006 18.6058 46.3006 16.7772C46.3006 14.9487 46.0392 13.4709 45.4378 12.2185C44.1829 9.48823 41.4376 7.93524 37.3851 7.93524H30.0906V25.6192ZM33.9601 22.4381V11.1164H36.7838C39.346 11.1164 40.8886 11.968 41.6206 13.5961C42.0128 14.4227 42.1958 15.3996 42.1958 16.7772C42.1958 18.1549 42.0128 19.1318 41.6206 19.9584C40.8886 21.5614 39.3721 22.4381 36.7838 22.4381H33.9601Z" fill="white"/>
<path d="M49.6474 25.6192H61.4651V22.5383H53.5169V18.1549H61.3866V15.1241H53.5169V11.0162H61.4651V7.93524H49.6474V25.6192Z" fill="white"/>
<path d="M71.6098 26.0701C75.1133 26.0701 77.7278 24.9179 78.7213 22.7888C79.0351 22.1125 79.2181 21.3611 79.2181 20.4844C79.2181 19.6327 79.0612 18.9314 78.7998 18.3302C77.937 16.5268 75.8454 15.7753 73.44 15.1491C71.2176 14.573 69.1522 14.2474 68.6031 13.1202C68.4985 12.8447 68.4724 12.6192 68.4724 12.3187C68.4724 12.0181 68.4985 11.7927 68.6293 11.5171C68.9953 10.7406 70.015 10.2647 71.3484 10.2647C72.7602 10.2647 73.6753 10.7406 74.1198 11.6424C74.3289 12.0932 74.4074 12.5942 74.4074 13.2204H78.4076C78.4076 12.2185 78.2507 11.4169 77.9108 10.6404C76.9435 8.5865 74.6427 7.48438 71.5052 7.48438C68.2894 7.48438 65.8579 8.66164 64.9689 10.6154C64.6552 11.2666 64.4722 11.9429 64.4722 12.7194C64.4722 13.521 64.6552 14.1472 64.8905 14.6982C65.6487 16.3264 67.505 17.153 69.6489 17.704C71.8974 18.3302 74.1459 18.6559 74.7734 19.9834C74.9041 20.2589 74.9826 20.5345 74.9826 20.9102C74.9826 21.2358 74.9041 21.5364 74.7473 21.8871C74.3551 22.7137 73.257 23.1896 71.7406 23.1896C70.1195 23.1896 69.0737 22.6636 68.6031 21.6867C68.394 21.2358 68.3155 20.6848 68.3155 20.0586H64.0539C64.08 21.0605 64.2369 21.9622 64.6029 22.7387C65.5703 24.7676 67.9233 26.0701 71.6098 26.0701Z" fill="white"/>
<path d="M82.3525 25.6192H86.222V7.93524H82.3525V25.6192Z" fill="white"/>
<path d="M98.8184 16.0008V18.8312H103.368C103.342 19.6077 103.211 20.1587 102.949 20.7349C102.27 22.1376 100.832 22.8389 98.7923 22.8389C96.6484 22.8389 95.1058 22.0374 94.3476 20.4343C93.9031 19.4824 93.7201 18.4555 93.7201 16.7772C93.7201 15.099 93.9031 14.047 94.3476 13.1202C95.0797 11.5422 96.5699 10.7156 98.6877 10.7156C100.021 10.7156 101.172 11.0412 101.93 11.7175C102.583 12.2686 102.949 13.0451 103.08 14.0219H107.08C106.923 12.1684 106.113 10.5653 104.806 9.43813C103.342 8.16068 101.25 7.48438 98.74 7.48438C94.6875 7.48438 91.9161 9.13755 90.5304 12.0431C89.9291 13.3206 89.6153 14.8736 89.6153 16.7772C89.6153 18.6809 89.9291 20.2339 90.5304 21.5113C91.89 24.3919 94.6875 26.0701 98.6877 26.0701C102.426 26.0701 104.989 24.6424 106.296 21.8871C106.95 20.4844 107.237 18.8813 107.237 17.2031V16.0008H98.8184Z" fill="white"/>
<path d="M110.589 25.6192H114.354V13.4959L122.485 25.6192H126.459V7.93524H122.695V20.0836L114.537 7.93524H110.589V25.6192Z" fill="white"/>
<path d="M144.669 26.0701C147.152 26.0701 149.349 25.3437 150.839 24.0162C152.198 22.8389 153.035 21.1356 153.087 19.1067H148.983C148.93 20.2589 148.486 21.1356 147.78 21.7368C146.996 22.4131 145.897 22.7888 144.512 22.7888C142.499 22.7888 141.061 21.9873 140.328 20.4343C139.884 19.5075 139.727 18.3553 139.727 16.7772C139.727 15.1742 139.91 14.072 140.328 13.1453C141.034 11.6424 142.42 10.7657 144.512 10.7657C145.897 10.7657 146.917 11.1414 147.701 11.7927C148.434 12.4439 148.852 13.3456 148.904 14.5229H153.009C152.931 12.494 152.146 10.7406 150.708 9.51328C149.218 8.21077 147.126 7.48438 144.642 7.48438C140.616 7.48438 137.845 9.18765 136.537 12.0181C135.91 13.3707 135.596 14.9237 135.596 16.7772C135.596 18.6308 135.884 20.1838 136.511 21.5364C137.871 24.4169 140.668 26.0701 144.669 26.0701Z" fill="white"/>
<path d="M164.863 26.0701C168.889 26.0701 171.608 24.4169 172.941 21.6115C173.595 20.2589 173.909 18.5807 173.909 16.7772C173.909 14.9738 173.595 13.3206 172.941 11.9429C171.634 9.1626 168.889 7.48438 164.889 7.48438C160.862 7.48438 158.091 9.1626 156.784 11.968C156.156 13.3456 155.842 14.9988 155.842 16.7772C155.842 18.5807 156.156 20.2339 156.81 21.5865C158.117 24.4169 160.862 26.0701 164.863 26.0701ZM164.889 22.7387C162.666 22.7387 161.281 21.8119 160.575 20.309C160.13 19.3322 159.947 18.2551 159.947 16.7772C159.947 15.2994 160.13 14.2223 160.575 13.2455C161.281 11.7426 162.666 10.8158 164.863 10.8158C167.085 10.8158 168.471 11.7426 169.176 13.2455C169.647 14.2223 169.804 15.2994 169.804 16.7772C169.804 18.2551 169.621 19.3322 169.176 20.284C168.471 21.8119 167.111 22.7387 164.889 22.7387Z" fill="white"/>
<path d="M180.375 26H183.875V14L189.025 26H190.7L195.85 14V26H199.35V8.35H195L189.875 20.175L184.825 8.35H180.375V26ZM203.104 26H206.604V14L211.754 26H213.429L218.579 14V26H222.079V8.35H217.729L212.604 20.175L207.554 8.35H203.104V26ZM232.757 26.45C237.732 26.45 239.957 24.4 239.957 19.925V8.35H236.257V19.65C236.257 22.025 235.182 23.225 232.757 23.225C230.357 23.225 229.282 22.025 229.282 19.65V8.35H225.607V19.925C225.607 24.4 227.807 26.45 232.757 26.45ZM243.458 26H247.058V13.9L254.833 26H258.633V8.35H255.033V20.475L247.233 8.35H243.458V26ZM262.402 26H266.102V8.35H262.402V26ZM272.772 26H276.447V11.475H280.522V8.35H268.672V11.475H272.772V26ZM287.871 26H291.571V18.4L297.396 8.35H293.346L289.721 14.875L286.071 8.35H281.996L287.871 18.4V26Z" fill="black"/>
</svg>
