<svg width="11" height="10" viewBox="0 0 11 10" fill="none" xmlns="http://www.w3.org/2000/svg">
<path d="M1.12007 2.0952C1.44512 2.08641 1.70866 1.98978 1.91072 1.8053C2.10398 1.62081 2.20501 1.37045 2.21379 1.05419C2.20501 0.737932 2.10398 0.48317 1.91072 0.289902C1.70866 0.105419 1.44512 0.00878479 1.12007 0C0.786249 0.00878479 0.518309 0.105419 0.316256 0.289902C0.114204 0.48317 0.00878489 0.737932 0 1.05419C0.00878489 1.37045 0.114204 1.62081 0.316256 1.8053C0.518309 1.98978 0.786249 2.08641 1.12007 2.0952ZM0.105419 9.50087H2.10838V2.9649H0.105419V9.50087Z" fill="white"/>
<path d="M8.19322 2.75407C7.65734 2.75407 7.18735 2.84631 6.78325 3.03079C6.38793 3.21527 6.05849 3.48321 5.79495 3.83461V2.9649H3.79199V9.50087H5.79495V6.167C5.79495 5.5872 5.9355 5.13477 6.21662 4.80973C6.49774 4.49348 6.91502 4.33535 7.46847 4.33535C7.96921 4.33535 8.35135 4.46712 8.6149 4.73067C8.86966 4.99422 8.99704 5.40711 8.99704 5.96934V9.50087H11V5.57402C10.9912 4.65161 10.7452 3.94881 10.2621 3.46564C9.7789 2.99126 9.08928 2.75407 8.19322 2.75407Z" fill="white"/>
</svg>
