<svg width="11" height="11" viewBox="0 0 11 11" fill="none" xmlns="http://www.w3.org/2000/svg">
	<path class="st0" d="M1.1,2.3c0.3,0,0.6-0.1,0.8-0.3c0.2-0.2,0.3-0.4,0.3-0.8c0-0.3-0.1-0.6-0.3-0.8C1.7,0.4,1.4,0.3,1.1,0.2
		c-0.3,0-0.6,0.1-0.8,0.3C0.1,0.7,0,1,0,1.3c0,0.3,0.1,0.6,0.3,0.8C0.5,2.2,0.8,2.3,1.1,2.3z M0.1,9.8h2V3.2h-2V9.8z" fill="white"/>
	<path class="st0" d="M8.2,3c-0.5,0-1,0.1-1.4,0.3c-0.4,0.2-0.7,0.5-1,0.8V3.2h-2v6.5h2V6.4c0-0.6,0.1-1,0.4-1.4
		c0.3-0.3,0.7-0.5,1.3-0.5C8,4.6,8.4,4.7,8.6,5C8.9,5.2,9,5.7,9,6.2v3.5h2V5.8c0-0.9-0.3-1.6-0.7-2.1C9.8,3.2,9.1,3,8.2,3z" fill="white"/>
</svg>
